<?xml version="1.0" standalone="no"?>
<!DOCTYPE svg PUBLIC "-//W3C//DTD SVG 20010904//EN"
 "http://www.w3.org/TR/2001/REC-SVG-20010904/DTD/svg10.dtd">
<svg version="1.0" xmlns="http://www.w3.org/2000/svg"
 width="300.000000pt" height="100.000000pt" viewBox="0 0 300.000000 100.000000"
 preserveAspectRatio="xMidYMid meet">

<g transform="translate(0.000000,100.000000) scale(0.100000,-0.100000)"
fill="#000000" stroke="none">
<path d="M1360 819 c-19 -6 -45 -20 -57 -31 -41 -38 -48 -149 -13 -205 22 -34
58 -48 124 -48 95 1 96 2 96 90 l0 75 -57 0 c-55 0 -58 -1 -58 -25 0 -21 5
-25 28 -25 23 0 27 -4 27 -30 0 -28 -2 -30 -39 -30 -50 0 -71 27 -71 90 0 67
31 94 99 88 44 -4 50 -3 55 16 3 11 2 24 -2 28 -14 14 -96 18 -132 7z"/>
<path d="M40 678 l0 -143 35 0 35 0 0 47 0 48 42 6 c59 10 88 42 88 98 0 66
-30 86 -126 86 l-74 0 0 -142z m114 86 c34 -13 12 -74 -26 -74 -14 0 -18 8
-18 40 0 41 9 47 44 34z"/>
<path d="M300 681 l0 -139 35 -4 35 -4 0 63 0 63 55 0 55 0 0 -62 0 -63 35 0
35 0 0 143 0 142 -35 0 -35 0 0 -55 0 -55 -55 0 -55 0 0 55 0 55 -35 0 -35 0
0 -139z"/>
<path d="M680 813 c0 -5 -20 -69 -43 -143 l-43 -135 38 0 c33 0 38 3 44 28 5
25 9 27 60 27 48 0 54 -2 60 -24 5 -19 13 -25 45 -28 26 -2 38 0 35 8 -2 6
-23 70 -45 142 l-42 132 -54 0 c-30 0 -55 -3 -55 -7z m73 -65 c3 -18 9 -48 13
-65 6 -33 6 -33 -30 -33 -31 0 -36 3 -32 18 3 9 10 38 17 65 13 55 24 60 32
15z"/>
<path d="M930 677 l0 -144 31 5 31 5 -4 98 c-2 55 -1 99 3 99 3 0 30 -46 59
-102 l53 -103 49 0 48 0 0 143 0 142 -30 0 -30 0 0 -100 c0 -55 -3 -100 -7
-99 -5 0 -30 45 -58 100 l-50 99 -47 0 -48 0 0 -143z"/>
<path d="M1674 803 c5 -18 49 -197 60 -243 5 -23 9 -25 49 -22 l44 4 17 74 c9
41 16 83 16 94 0 47 18 14 34 -62 25 -122 20 -114 69 -110 l43 4 32 131 c18
73 32 135 32 140 0 4 -13 7 -30 7 -33 0 -39 -15 -62 -146 -6 -41 -15 -74 -18
-74 -4 0 -17 50 -30 110 l-22 110 -34 0 c-30 0 -34 -4 -44 -37 -6 -21 -16 -71
-23 -110 -17 -108 -20 -105 -58 85 -13 61 -13 62 -47 62 -27 0 -32 -3 -28 -17z"/>
<path d="M2130 678 l0 -143 35 0 35 0 0 143 0 142 -35 0 -35 0 0 -142z"/>
<path d="M2270 680 l0 -140 95 0 c95 0 95 0 95 25 0 24 -3 25 -60 25 l-60 0 0
115 0 115 -35 0 -35 0 0 -140z"/>
<path d="M2520 678 l0 -143 90 0 90 0 0 28 c0 26 -2 27 -55 27 l-55 0 0 115 0
115 -35 0 -35 0 0 -142z"/>
<path d="M2782 724 c42 -80 49 -103 46 -140 l-3 -44 35 0 35 0 1 58 c0 48 7
69 46 140 l46 82 -37 0 c-35 0 -39 -3 -61 -50 -13 -27 -26 -50 -30 -50 -4 0
-17 23 -30 50 -22 47 -26 50 -60 50 l-37 0 49 -96z"/>
<path d="M513 328 c-24 -25 -56 -95 -67 -143 -7 -29 -7 -29 8 -10 8 11 16 26
16 33 0 6 4 12 10 12 5 0 7 7 4 15 -6 14 40 105 52 105 4 0 3 -40 -1 -90 -7
-84 -6 -90 11 -90 17 0 19 9 19 92 0 103 -12 119 -52 76z"/>
<path d="M2530 302 c-11 -26 -27 -59 -34 -73 -19 -38 8 -94 29 -59 3 6 -1 7
-9 4 -19 -7 -20 2 -5 44 7 20 15 29 22 25 7 -3 9 -3 5 2 -4 4 4 22 17 40 29
37 31 51 11 58 -10 4 -21 -9 -36 -41z"/>
<path d="M1322 285 c-18 -25 -32 -52 -32 -59 0 -20 -39 -65 -40 -46 0 9 7 26
16 38 9 13 13 26 9 30 -7 8 -27 -21 -37 -55 -7 -26 8 -41 25 -24 8 8 16 6 29
-6 17 -16 18 -16 12 0 -3 9 8 47 27 87 17 39 30 72 27 75 -2 3 -19 -16 -36
-40z"/>
<path d="M1409 303 c-13 -15 -12 -15 9 -4 23 12 28 21 13 21 -5 0 -15 -7 -22
-17z"/>
<path d="M1617 276 c-25 -61 -32 -112 -17 -121 9 -5 11 -4 6 4 -4 6 2 44 14
82 24 81 23 98 -3 35z"/>
<path d="M1094 275 c-9 -14 -24 -25 -33 -25 -11 0 -13 -3 -4 -8 10 -6 10 -17
3 -42 -6 -19 -10 -37 -10 -40 1 -5 33 59 57 113 16 34 9 35 -13 2z"/>
<path d="M960 244 c-11 -29 -13 -68 -3 -77 3 -4 15 12 25 35 21 48 32 47 18
-2 -5 -19 -6 -38 -2 -42 4 -4 13 14 18 42 8 40 8 50 -3 50 -7 0 -18 -9 -25
-20 -19 -29 -28 -24 -18 10 11 37 3 40 -10 4z"/>
<path d="M2102 243 c-20 -51 -23 -71 -13 -78 6 -3 17 10 25 29 8 18 22 39 33
45 10 6 13 11 6 11 -6 0 -15 -4 -18 -10 -11 -18 -23 -11 -18 10 8 30 -3 24
-15 -7z"/>
<path d="M598 215 c-25 -76 -30 -108 -18 -100 5 3 10 15 10 26 0 11 10 23 23
28 13 5 31 22 41 38 l17 28 -23 -27 c-13 -16 -30 -28 -38 -28 -9 0 -6 8 10 25
13 14 19 25 12 25 -6 0 -12 8 -14 18 -2 10 -11 -4 -20 -33z"/>
<path d="M687 211 c-9 -29 -17 -65 -16 -80 1 -24 1 -24 10 7 5 17 16 32 24 32
15 0 55 46 55 64 0 6 -9 -4 -20 -21 -11 -18 -24 -33 -30 -33 -16 0 -12 12 12
37 16 17 18 22 6 18 -11 -4 -17 0 -20 12 -2 11 -10 -4 -21 -36z"/>
<path d="M791 238 c-19 -51 -21 -67 -11 -73 6 -4 17 9 25 29 8 19 23 40 32 45
10 6 13 11 6 11 -6 0 -15 -4 -18 -10 -10 -16 -25 -12 -19 5 4 8 3 15 0 15 -4
0 -10 -10 -15 -22z"/>
<path d="M880 241 c-5 -11 -9 -35 -9 -53 1 -18 3 -25 6 -15 3 10 16 29 29 42
25 25 25 45 -1 45 -8 0 -19 -9 -25 -19z m21 -24 c-8 -8 -11 -7 -11 4 0 20 13
34 18 19 3 -7 -1 -17 -7 -23z"/>
<path d="M1135 227 c-17 -40 -19 -67 -7 -67 9 0 33 92 26 99 -2 2 -11 -12 -19
-32z"/>
<path d="M1362 235 c-7 -14 -12 -38 -11 -53 0 -15 3 -21 6 -12 3 8 17 27 30
42 25 26 24 48 -1 48 -7 0 -18 -11 -24 -25z m28 -6 c-7 -11 -14 -19 -16 -16
-7 7 7 37 17 37 6 0 5 -9 -1 -21z"/>
<path d="M1442 235 c-14 -31 -16 -72 -2 -80 5 -3 18 12 30 34 26 52 26 66 -1
22 -24 -40 -36 -35 -20 10 14 39 9 49 -7 14z"/>
<path d="M1522 235 c-16 -35 -15 -60 3 -75 13 -10 18 -11 28 -1 9 10 8 11 -4
6 -29 -11 -32 15 -5 40 14 13 26 31 26 40 0 25 -36 17 -48 -10z m38 6 c0 -5
-7 -14 -15 -21 -16 -14 -18 -10 -9 14 6 17 24 22 24 7z"/>
<path d="M1735 248 c-26 -72 -35 -104 -34 -122 1 -15 4 -13 11 12 6 17 16 32
23 32 18 0 58 47 52 62 -4 9 -6 8 -6 -3 -1 -17 -38 -55 -46 -47 -3 3 4 17 16
31 17 23 18 26 3 20 -13 -5 -16 -3 -11 10 3 9 4 17 1 17 -2 0 -7 -6 -9 -12z"/>
<path d="M1820 234 c-18 -46 -33 -115 -26 -121 3 -3 9 8 12 25 4 18 12 32 19
32 18 0 58 47 52 62 -4 9 -6 8 -6 -3 -1 -17 -38 -55 -46 -47 -3 3 4 17 16 31
15 20 16 25 5 21 -12 -5 -15 -2 -10 10 3 9 3 16 0 16 -4 0 -11 -12 -16 -26z"/>
<path d="M1912 235 c-7 -14 -12 -38 -11 -53 0 -15 3 -21 6 -12 3 8 17 27 30
42 25 26 24 48 -1 48 -7 0 -18 -11 -24 -25z m28 -6 c-7 -11 -14 -19 -16 -16
-7 7 7 37 17 37 6 0 5 -9 -1 -21z"/>
<path d="M1992 235 c-14 -31 -15 -62 -3 -70 5 -3 12 4 16 15 9 29 25 25 26 -7
0 -16 2 -23 4 -18 1 6 8 29 15 53 17 53 8 62 -25 26 l-26 -29 5 28 c8 34 3 35
-12 2z"/>
<path d="M2279 220 c-9 -31 -10 -43 -1 -52 9 -9 15 -8 25 6 12 17 14 17 20 2
11 -27 25 -18 47 31 25 57 19 69 -9 16 -19 -37 -20 -37 -21 -10 0 33 -12 35
-34 5 -16 -23 -16 -23 -10 10 8 45 -3 40 -17 -8z"/>
<path d="M2420 241 c-5 -11 -9 -35 -9 -53 1 -21 3 -26 6 -13 3 11 14 26 24 33
22 16 25 52 4 52 -8 0 -19 -9 -25 -19z m24 -15 c-3 -9 -10 -16 -15 -16 -6 0
-5 9 1 21 13 24 24 20 14 -5z"/>
<path d="M1662 238 c-26 -34 -21 -88 8 -88 10 0 30 56 30 81 0 22 -23 25 -38
7z m28 -15 c0 -22 -17 -50 -25 -42 -6 7 11 59 20 59 3 0 5 -8 5 -17z"/>
<path d="M2195 230 c3 -5 12 -10 20 -10 8 0 17 5 20 10 4 6 -5 10 -20 10 -15
0 -24 -4 -20 -10z"/>
<path d="M900 160 c-9 -6 -10 -10 -3 -10 6 0 15 5 18 10 8 12 4 12 -15 0z"/>
<path d="M1380 160 c-9 -6 -10 -10 -3 -10 6 0 15 5 18 10 8 12 4 12 -15 0z"/>
<path d="M1930 160 c-9 -6 -10 -10 -3 -10 6 0 15 5 18 10 8 12 4 12 -15 0z"/>
<path d="M2440 160 c-9 -6 -10 -10 -3 -10 6 0 15 5 18 10 8 12 4 12 -15 0z"/>
</g>
</svg>
