<svg xmlns="http://www.w3.org/2000/svg" xmlns:xlink="http://www.w3.org/1999/xlink" width="300" zoomAndPan="magnify" viewBox="0 0 375 74.999997" height="100" preserveAspectRatio="xMidYMid meet" version="1.0"><defs><g/></defs><g fill="#ffffff" fill-opacity="1"><g transform="translate(-1.264907, 56.199939)"><g><path d="M 30.953125 -25.3125 C 30.953125 -21.164062 29.726562 -17.960938 27.28125 -15.703125 C 24.832031 -13.441406 21.359375 -12.3125 16.859375 -12.3125 L 14.046875 -12.3125 L 14.046875 0 L 4.015625 0 L 4.015625 -37.125 L 16.859375 -37.125 C 21.546875 -37.125 25.066406 -36.097656 27.421875 -34.046875 C 29.773438 -32.003906 30.953125 -29.09375 30.953125 -25.3125 Z M 14.046875 -20.484375 L 15.875 -20.484375 C 17.375 -20.484375 18.566406 -20.90625 19.453125 -21.75 C 20.347656 -22.601562 20.796875 -23.773438 20.796875 -25.265625 C 20.796875 -27.765625 19.40625 -29.015625 16.625 -29.015625 L 14.046875 -29.015625 Z M 14.046875 -20.484375 "/></g></g></g><g fill="#ffffff" fill-opacity="1"><g transform="translate(31.588091, 56.199939)"><g><path d="M 35.828125 0 L 25.75 0 L 25.75 -15.140625 L 14.09375 -15.140625 L 14.09375 0 L 4.015625 0 L 4.015625 -37.125 L 14.09375 -37.125 L 14.09375 -23.359375 L 25.75 -23.359375 L 25.75 -37.125 L 35.828125 -37.125 Z M 35.828125 0 "/></g></g></g><g fill="#ffffff" fill-opacity="1"><g transform="translate(71.422991, 56.199939)"><g><path d="M 26.78125 0 L 24.953125 -6.953125 L 12.90625 -6.953125 L 11.015625 0 L 0 0 L 12.109375 -37.28125 L 25.5 -37.28125 L 37.75 0 Z M 22.875 -15.1875 L 21.28125 -21.28125 C 20.90625 -22.632812 20.453125 -24.382812 19.921875 -26.53125 C 19.390625 -28.6875 19.035156 -30.226562 18.859375 -31.15625 C 18.710938 -30.289062 18.414062 -28.867188 17.96875 -26.890625 C 17.519531 -24.910156 16.523438 -21.007812 14.984375 -15.1875 Z M 22.875 -15.1875 "/></g></g></g><g fill="#ffffff" fill-opacity="1"><g transform="translate(109.176017, 56.199939)"><g><path d="M 39.359375 0 L 26.203125 0 L 12.640625 -26.15625 L 12.421875 -26.15625 C 12.742188 -22.039062 12.90625 -18.898438 12.90625 -16.734375 L 12.90625 0 L 4.015625 0 L 4.015625 -37.125 L 17.109375 -37.125 L 30.625 -11.328125 L 30.78125 -11.328125 C 30.539062 -15.066406 30.421875 -18.070312 30.421875 -20.34375 L 30.421875 -37.125 L 39.359375 -37.125 Z M 39.359375 0 "/></g></g></g><g fill="#ffffff" fill-opacity="1"><g transform="translate(152.539944, 56.199939)"><g><path d="M 18.921875 -21.734375 L 34.9375 -21.734375 L 34.9375 -1.734375 C 30.582031 -0.234375 25.800781 0.515625 20.59375 0.515625 C 14.875 0.515625 10.453125 -1.144531 7.328125 -4.46875 C 4.203125 -7.789062 2.640625 -12.519531 2.640625 -18.65625 C 2.640625 -24.65625 4.347656 -29.320312 7.765625 -32.65625 C 11.191406 -35.988281 15.984375 -37.65625 22.140625 -37.65625 C 24.472656 -37.65625 26.675781 -37.429688 28.75 -36.984375 C 30.820312 -36.546875 32.628906 -35.988281 34.171875 -35.3125 L 31 -27.453125 C 28.320312 -28.765625 25.382812 -29.421875 22.1875 -29.421875 C 19.257812 -29.421875 16.992188 -28.46875 15.390625 -26.5625 C 13.796875 -24.664062 13 -21.945312 13 -18.40625 C 13 -14.9375 13.722656 -12.289062 15.171875 -10.46875 C 16.617188 -8.65625 18.707031 -7.75 21.4375 -7.75 C 22.925781 -7.75 24.296875 -7.890625 25.546875 -8.171875 L 25.546875 -13.984375 L 18.921875 -13.984375 Z M 18.921875 -21.734375 "/></g></g></g><g fill="#ffffff" fill-opacity="1"><g transform="translate(191.029236, 56.199939)"><g/></g></g><g fill="#ffffff" fill-opacity="1"><g transform="translate(204.536033, 56.199939)"><g><path d="M 44.109375 0 L 32.25 0 L 28.6875 -16.171875 C 28.519531 -16.847656 28.253906 -18.191406 27.890625 -20.203125 C 27.523438 -22.222656 27.257812 -23.910156 27.09375 -25.265625 C 26.957031 -24.160156 26.734375 -22.789062 26.421875 -21.15625 C 26.117188 -19.53125 25.820312 -18.03125 25.53125 -16.65625 C 25.238281 -15.28125 24.007812 -9.726562 21.84375 0 L 9.984375 0 L 0.78125 -37.125 L 10.46875 -37.125 L 14.5 -18.515625 C 15.414062 -14.398438 16.039062 -11.125 16.375 -8.6875 C 16.59375 -10.414062 16.984375 -12.757812 17.546875 -15.71875 C 18.117188 -18.675781 18.648438 -21.128906 19.140625 -23.078125 L 22.421875 -37.125 L 31.71875 -37.125 L 34.890625 -23.078125 C 35.429688 -20.828125 35.976562 -18.226562 36.53125 -15.28125 C 37.09375 -12.34375 37.46875 -10.144531 37.65625 -8.6875 C 37.875 -10.5625 38.472656 -13.816406 39.453125 -18.453125 L 43.578125 -37.125 L 53.25 -37.125 Z M 44.109375 0 "/></g></g></g><g fill="#ffffff" fill-opacity="1"><g transform="translate(258.56322, 56.199939)"><g><path d="M 4.015625 0 L 4.015625 -37.125 L 14.09375 -37.125 L 14.09375 0 Z M 4.015625 0 "/></g></g></g><g fill="#ffffff" fill-opacity="1"><g transform="translate(276.665368, 56.199939)"><g><path d="M 4.015625 0 L 4.015625 -37.125 L 14.046875 -37.125 L 14.046875 -8.09375 L 28.34375 -8.09375 L 28.34375 0 Z M 4.015625 0 "/></g></g></g><g fill="#ffffff" fill-opacity="1"><g transform="translate(306.928717, 56.199939)"><g><path d="M 4.015625 0 L 4.015625 -37.125 L 14.046875 -37.125 L 14.046875 -8.09375 L 28.34375 -8.09375 L 28.34375 0 Z M 4.015625 0 "/></g></g></g><g fill="#ffffff" fill-opacity="1"><g transform="translate(337.192066, 56.199939)"><g><path d="M 17.265625 -23.359375 L 23.671875 -37.125 L 34.53125 -37.125 L 22.3125 -14.5 L 22.3125 0 L 12.21875 0 L 12.21875 -14.1875 L 0 -37.125 L 10.921875 -37.125 Z M 17.265625 -23.359375 "/></g></g></g></svg>